<svg id="图层_2_复制" data-name="图层 2_复制" xmlns="http://www.w3.org/2000/svg" viewBox="0 0 323.64 99.66"><defs><style>.cls-1{fill:#e60012;}.cls-2{fill:#1c4290;}.cls-3{fill:#fff;}</style></defs><title>logo</title><circle class="cls-1" cx="49.83" cy="49.83" r="49.83"/><circle class="cls-2" cx="49.83" cy="49.83" r="45.05"/><path class="cls-3" d="M231.68,193.46c0,5.47-3.92,15.07-3.92,15.07L247.43,211c0.47-.23-4.14,12.18-12.78,19l-24-7.24s-6.42,1.61-9.88,1.61A30.91,30.91,0,1,1,231.68,193.46Z" transform="translate(-150.94 -143.63)"/><path class="cls-1" d="M195,205.88H180.36l7.14-34.35Zm-10.68-2.11h6.78l-3.88-19.1Z" transform="translate(-150.94 -143.63)"/><ellipse class="cls-1" cx="36.78" cy="62.25" rx="7.26" ry="2.75"/><path class="cls-1" d="M223.31,205.88H208.64l7.14-34.35Zm-10.68-2.11h6.78l-3.88-19.1Z" transform="translate(-150.94 -143.63)"/><ellipse class="cls-1" cx="65.07" cy="62.25" rx="7.26" ry="2.75"/><path class="cls-1" d="M247.61,232l0.84-8.07a149.06,149.06,0,0,0-36.62-9.64c13-.44,26.57,1.32,37.46,5.55l0.42-5.34c-3.87-3.07-34-5.63-43.06-2.51V182.52h13.83v-4.61h-38v4.61h15.09v35.2h3.93S214.71,218.35,224,221C231.8,222.71,239.68,226.86,247.61,232Zm-46.15-49.45H203v32h-1.52v-32Z" transform="translate(-150.94 -143.63)"/><circle class="cls-1" cx="51.15" cy="32.03" r="3.61"/><ellipse class="cls-1" cx="51.28" cy="32" rx="4.56" ry="1.29"/><path class="cls-3" d="M273.34,156.38h3.14q0.63,0,2.3,4.19h4q4.19,0,5.66,4.61v16.55q-1.26,5-5,5H269.15v12.15q0,1.67,2.09,1.89h11.1a2,2,0,0,0,2.1-2.1l-4.19-7.33h3.56q4.19,6.71,4.19,7.54v0.63q0,3.14-4.19,4.61a4,4,0,0,1-1.26.21H271q-4.19,0-5.66-4.61V165.6q1-5,5.87-5h4v-0.21A22.39,22.39,0,0,1,273.34,156.38Zm-4.19,9.85v5.45h15.71v-5.45a2,2,0,0,0-2.1-2.1H271C269.78,164.13,269.15,164.83,269.15,166.23Zm0,9.22V183h13.62c1.39-.14,2.1-0.7,2.1-1.68v-5.87H269.15ZM306.65,157q4.19,0,6.08,5.24v35.62q-1.05,6.28-6.29,6.29h-2.3c-0.28,0-.42-0.07-0.42-0.21V200.8a0.59,0.59,0,0,1,.42-0.21h2.1q2.72-.42,2.72-2.93v-8H294.71q-0.42,12.78-.42,14.67v0.21c-1.26-.14-2.17-0.21-2.72-0.21h-0.42l-0.42-.21q1-37.92,1-40.85,0-4.4,5.66-6.29h9.22Zm-11.52,17.6q0,1.89-.21,11.52h14V174.61H295.13Zm0.21-10.69V171H309V163.5q-0.42-2.72-2.3-2.72h-8.17Q295.34,161.2,295.34,163.92Z" transform="translate(-150.94 -143.63)"/><path class="cls-3" d="M323.62,172.51a0.19,0.19,0,0,1,.21.21v4.61q0,16.55-2.51,26.61c-2.38-.56-3.56-0.91-3.56-1q2.51-10.69,2.51-30.38h3.35Zm14.88-15.92a18.76,18.76,0,0,1,.21,3.56q0,0.42-8,.84v4.82h8.38a0.19,0.19,0,0,1,.21.21v3.35a0.19,0.19,0,0,1-.21.21h-8.38v33.94a0.19,0.19,0,0,1-.21.21h-3.14a0.19,0.19,0,0,1-.21-0.21V169.58h-8.8a0.18,0.18,0,0,1-.21-0.21V166a0.19,0.19,0,0,1,.21-0.21h8.8V161.2l-8,.42q-0.21,0-.42-3.56H319Q337.87,156.8,338.5,156.59Zm-3.35,15.92h3.35a0.19,0.19,0,0,1,.21.21v30.17c0,0.28-.07.42-0.21,0.42h-3.35c-0.14,0-.21-0.14-0.21-0.42V172.72A0.19,0.19,0,0,1,335.15,172.51ZM352.54,156h3.14a0.19,0.19,0,0,1,.21.21q0,12.57-1,23l11.73,23.26a37.45,37.45,0,0,1-3.35,1.68q-4.82-9.43-9.22-18.65-0.42,0-.84,3.35-2.94,9.43-8.38,12.78-2.94,1.67-4,1.68a39.57,39.57,0,0,0,8.38-14q2.93-10.26,2.93-31.64v-1.47C352.12,156,352.25,156,352.54,156Zm-7.12,2.1,3.35,23q0,0.21-3.56.63-0.21,0-3.35-23Q342.27,158.27,345.41,158.06ZM362,158.27h3.35v0.21a158.58,158.58,0,0,1-2.3,19.28q-1.05,4.19-1.26,4.19-3.14-.63-3.35-1,1.46-5.23,2.93-18.23Q361.54,158.27,362,158.27Z" transform="translate(-150.94 -143.63)"/><path class="cls-3" d="M383.33,156.17a14.86,14.86,0,0,1,2.72,2.3q-11.74,13.62-11.94,13.83a17.37,17.37,0,0,1-2.72-2.51Q382.71,156.59,383.33,156.17Zm-1,11.52h0.21v36.25c0,0.14-.14.21-0.42,0.21h-3.14a0.19,0.19,0,0,1-.21-0.21v-26.4a59.29,59.29,0,0,1-4.61,5.24,16.1,16.1,0,0,1-2.51-2.3Q376.63,174.4,382.29,167.69ZM400.93,156h3.14a0.19,0.19,0,0,1,.21.21v2.51h8.17q3.77,0,5.24,4.19a9.19,9.19,0,0,1,.21,1.47v3.35h1.26a0.62,0.62,0,0,1,.21.42V171a0.19,0.19,0,0,1-.21.21H417.9V174q0,4-4.19,5.66h-9.43V183h12.78a0.19,0.19,0,0,1,.21.21v3.14a0.19,0.19,0,0,1-.21.21H404.28v3.35h14.46a0.61,0.61,0,0,1,.21.42v2.93a0.18,0.18,0,0,1-.21.21H404.28v10.48a0.19,0.19,0,0,1-.21.21h-3.14a0.19,0.19,0,0,1-.21-0.21V193.46H386.27a0.18,0.18,0,0,1-.21-0.21v-2.93c0-.28.07-0.42,0.21-0.42h14.46v-3.35H388.15c-0.28,0-.42-0.07-0.42-0.21V183.2a0.61,0.61,0,0,1,.42-0.21h12.57v-3.35H389.2a0.18,0.18,0,0,1-.21-0.21v-2.93a0.19,0.19,0,0,1,.21-0.21h11.52v-5h-14a0.19,0.19,0,0,1-.21-0.21v-2.93c0-.28.07-0.42,0.21-0.42h14V162H389.2a0.18,0.18,0,0,1-.21-0.21v-2.93a0.19,0.19,0,0,1,.21-0.21h11.52v-2.51A0.19,0.19,0,0,1,400.93,156Zm3.35,6.08v5.66h10.06v-3.77q0-1.89-2.72-1.89h-7.33Zm0,9.22v5h7.54q2.51-.21,2.51-1.89v-3.14H404.28Z" transform="translate(-150.94 -143.63)"/><path class="cls-3" d="M438,156.17h3.14a0.19,0.19,0,0,1,.21.21v21.37q0,18-11.52,22.42a15.73,15.73,0,0,1-3.77.84,32.69,32.69,0,0,0,7.12-5.66q4.4-5,4.4-15.29V156.38A0.61,0.61,0,0,1,438,156.17Zm-9.64,5h2.93a0.19,0.19,0,0,1,.21.21v28.7a0.19,0.19,0,0,1-.21.21h-2.93c-0.28,0-.42-0.07-0.42-0.21v-28.7A0.61,0.61,0,0,1,428.38,161.2Zm17.18-4.4h27.66a0.19,0.19,0,0,1,.21.21v3.14a0.19,0.19,0,0,1-.21.21H461.06v6.29h4.82q5.24,0,6.91,4.19a7.56,7.56,0,0,1,.63,3.35v18.65q0,5.24-5.24,7.12h-3.35a0.19,0.19,0,0,1-.21-0.21v-3.14a0.19,0.19,0,0,1,.21-0.21h2.1q2.51,0,2.72-3.35v-19.9q0-2.51-3.14-2.93h-5.45v33.94a0.19,0.19,0,0,1-.21.21h-3.14a0.19,0.19,0,0,1-.21-0.21V170.21h-5.24q-3.35,0-3.35,3.35V200a0.19,0.19,0,0,1-.21.21h-3.14c-0.28,0-.42-0.07-0.42-0.21V174.19q0-5,4-6.91a9,9,0,0,1,3.56-.63h4.82v-6.29H445.56a0.18,0.18,0,0,1-.21-0.21V157A0.19,0.19,0,0,1,445.56,156.8Z" transform="translate(-150.94 -143.63)"/><path class="cls-3" d="M280.79,230h-8V214.79h2v13.47h6.06V230Z" transform="translate(-150.94 -143.63)"/><path class="cls-3" d="M295.67,230H293.5l-1.55-4.16h-6.33L284.15,230H282l5.79-15.21h2.1Zm-4.33-5.88-2.3-6.32a7.11,7.11,0,0,1-.24-1.06h0a5.85,5.85,0,0,1-.25,1.06l-2.28,6.32h5.11Z" transform="translate(-150.94 -143.63)"/><path class="cls-3" d="M310.29,230H308l-7.65-11.83a5.71,5.71,0,0,1-.52-1h-0.06a17.66,17.66,0,0,1,.08,2.13V230h-1.94V214.79h2.46l7.44,11.63a10.66,10.66,0,0,1,.63,1.05h0a17,17,0,0,1-.1-2.22V214.79h1.94V230Z" transform="translate(-150.94 -143.63)"/><path class="cls-3" d="M325.72,229a10.22,10.22,0,0,1-5.15,1.3,7.06,7.06,0,0,1-5.32-2.09,7.68,7.68,0,0,1-2-5.57,7.92,7.92,0,0,1,2.23-5.79,7.67,7.67,0,0,1,5.72-2.27,10,10,0,0,1,4.17.79v2.12a8,8,0,0,0-4.35-1.15,5.4,5.4,0,0,0-4.1,1.7,7.22,7.22,0,0,0-.13,8.93,5.21,5.21,0,0,0,4,1.59,6.07,6.07,0,0,0,3-.67v-4.11h-3.3V222h5.27v7Z" transform="translate(-150.94 -143.63)"/><path class="cls-3" d="M349,233.95a5.77,5.77,0,0,1-1.72.23,5.51,5.51,0,0,1-2.68-.69,15.45,15.45,0,0,1-3.49-3.23,6.4,6.4,0,0,1-5-2.17,7.93,7.93,0,0,1-2-5.51,8.34,8.34,0,0,1,2-5.87,7,7,0,0,1,5.45-2.17,6.51,6.51,0,0,1,5.05,2.13,7.93,7.93,0,0,1,1.94,5.55,9,9,0,0,1-1.37,5.1,6.19,6.19,0,0,1-3.88,2.66,9.82,9.82,0,0,0,2.16,1.88,4.34,4.34,0,0,0,3.53.24v1.86Zm-12.82-11.53a6.62,6.62,0,0,0,1.41,4.42,4.59,4.59,0,0,0,3.68,1.66,4.81,4.81,0,0,0,3.83-1.6,6.58,6.58,0,0,0,1.39-4.46,6.82,6.82,0,0,0-1.36-4.55,4.63,4.63,0,0,0-3.73-1.6,4.73,4.73,0,0,0-3.77,1.69A6.58,6.58,0,0,0,336.21,222.42Z" transform="translate(-150.94 -143.63)"/><path class="cls-3" d="M355,216.45h-1.46v11.89H355V230h-4.89v-1.66h1.46V216.45h-1.46v-1.66H355v1.66Z" transform="translate(-150.94 -143.63)"/><path class="cls-3" d="M368.71,223.8q0,6.45-5.85,6.45-5.61,0-5.61-6.23v-9.24h2v9.15q0,4.57,3.83,4.57t3.7-4.42v-9.3h2v9Z" transform="translate(-150.94 -143.63)"/><path class="cls-3" d="M386.43,230h-8V214.79h2v13.47h6.06V230Z" transform="translate(-150.94 -143.63)"/><path class="cls-3" d="M401.3,230h-2.17l-1.55-4.16h-6.33L389.79,230h-2.17l5.79-15.21h2.1ZM397,224.12l-2.3-6.32a7.12,7.12,0,0,1-.24-1.06h0a5.77,5.77,0,0,1-.25,1.06l-2.28,6.32H397Z" transform="translate(-150.94 -143.63)"/><path class="cls-3" d="M421,214.79L416.7,230h-2.29l-3.06-11a7.1,7.1,0,0,1-.25-1.57h0a7.46,7.46,0,0,1-.28,1.55l-3.09,11h-2.27L401,214.79h2.17l3.1,11.49a7.46,7.46,0,0,1,.25,1.56h0.06a8.68,8.68,0,0,1,.32-1.56l3.29-11.49h1.93l3.14,11.58a9.64,9.64,0,0,1,.25,1.45h0a8,8,0,0,1,.28-1.49l3-11.54H421Z" transform="translate(-150.94 -143.63)"/><path class="cls-3" d="M437,216.54H431.1v5.09h5.44v1.73H431.1V230h-2V214.79H437v1.75Z" transform="translate(-150.94 -143.63)"/><path class="cls-3" d="M443.25,216.45h-1.46v11.89h1.46V230h-4.89v-1.66h1.46V216.45h-1.46v-1.66h4.89v1.66Z" transform="translate(-150.94 -143.63)"/><path class="cls-3" d="M456.84,230h-2.32L452,225.78a5.91,5.91,0,0,0-1.38-1.72,2.49,2.49,0,0,0-1.5-.46H447.7V230h-2V214.79h4.64a5.19,5.19,0,0,1,3.48,1.07,3.72,3.72,0,0,1,1.26,3q0,3.16-3.38,4.11v0a3.13,3.13,0,0,1,1.08.76,11.32,11.32,0,0,1,1.18,1.68Zm-9.14-13.49v5.37H450a3.07,3.07,0,0,0,2.19-.79A2.69,2.69,0,0,0,453,219a2.33,2.33,0,0,0-.77-1.86,3.3,3.3,0,0,0-2.23-.67H447.7Z" transform="translate(-150.94 -143.63)"/><path class="cls-3" d="M472.63,230V219.92q0-1.25.15-3h0a9.24,9.24,0,0,1-.45,1.53l-5,11.54h-1.09l-5-11.45a10.25,10.25,0,0,1-.45-1.62h-0.06q0.1,1.06.1,3.08v10h-1.88V214.79h2.66L466,225.22a13.8,13.8,0,0,1,.68,1.87h0.07q0.51-1.4.72-1.91L472,214.79h2.53V230h-2Z" transform="translate(-150.94 -143.63)"/></svg>